<mxfile host="app.diagrams.net" modified="2023-11-21T12:22:13.303Z" agent="Mozilla/5.0 (Windows NT 10.0; Win64; x64) AppleWebKit/537.36 (KHTML, like Gecko) Chrome/119.0.0.0 Safari/537.36 Edg/119.0.0.0" etag="2cTMSaGf_6JsETzRLhzu" version="22.1.3" type="device">
  <diagram name="Страница — 1" id="o3sYmgAIau1fM3dsohi6">
    <mxGraphModel dx="1911" dy="988" grid="1" gridSize="10" guides="1" tooltips="1" connect="1" arrows="1" fold="1" page="1" pageScale="1" pageWidth="3300" pageHeight="2339" math="0" shadow="0">
      <root>
        <mxCell id="0" />
        <mxCell id="1" parent="0" />
        <mxCell id="FY81dZ7kDu10n6bw8b0m-5" value="&lt;font style=&quot;font-size: 14px;&quot;&gt;Регистрация и авторизация&lt;/font&gt;" style="html=1;align=center;verticalAlign=top;rounded=1;absoluteArcSize=1;arcSize=10;dashed=0;whiteSpace=wrap;" vertex="1" parent="1">
          <mxGeometry x="150" y="200" width="180" height="60" as="geometry" />
        </mxCell>
        <mxCell id="FY81dZ7kDu10n6bw8b0m-6" value="" style="endArrow=classic;html=1;rounded=0;entryX=0.5;entryY=0;entryDx=0;entryDy=0;" edge="1" parent="1" target="FY81dZ7kDu10n6bw8b0m-5">
          <mxGeometry width="50" height="50" relative="1" as="geometry">
            <mxPoint x="240" y="20" as="sourcePoint" />
            <mxPoint x="250" y="70" as="targetPoint" />
          </mxGeometry>
        </mxCell>
        <mxCell id="FY81dZ7kDu10n6bw8b0m-7" value="&lt;font style=&quot;font-size: 10px;&quot;&gt;Пользовательское соглашение&lt;/font&gt;" style="text;html=1;strokeColor=none;fillColor=none;align=center;verticalAlign=middle;whiteSpace=wrap;rounded=0;rotation=-90;" vertex="1" parent="1">
          <mxGeometry x="210" y="80" width="60" height="30" as="geometry" />
        </mxCell>
        <mxCell id="FY81dZ7kDu10n6bw8b0m-8" value="" style="endArrow=classic;html=1;rounded=0;entryX=0;entryY=0.75;entryDx=0;entryDy=0;" edge="1" parent="1" target="FY81dZ7kDu10n6bw8b0m-5">
          <mxGeometry width="50" height="50" relative="1" as="geometry">
            <mxPoint x="20" y="245" as="sourcePoint" />
            <mxPoint x="100" y="310" as="targetPoint" />
          </mxGeometry>
        </mxCell>
        <mxCell id="FY81dZ7kDu10n6bw8b0m-9" value="" style="endArrow=classic;html=1;rounded=0;entryX=0;entryY=0.25;entryDx=0;entryDy=0;" edge="1" parent="1" target="FY81dZ7kDu10n6bw8b0m-5">
          <mxGeometry width="50" height="50" relative="1" as="geometry">
            <mxPoint x="20" y="215" as="sourcePoint" />
            <mxPoint x="70" y="280" as="targetPoint" />
          </mxGeometry>
        </mxCell>
        <mxCell id="FY81dZ7kDu10n6bw8b0m-11" value="&lt;font style=&quot;font-size: 10px;&quot;&gt;Данные о клиентах&lt;/font&gt;" style="text;html=1;strokeColor=none;fillColor=none;align=center;verticalAlign=middle;whiteSpace=wrap;rounded=0;rotation=0;" vertex="1" parent="1">
          <mxGeometry x="30" y="190" width="110" height="30" as="geometry" />
        </mxCell>
        <mxCell id="FY81dZ7kDu10n6bw8b0m-12" value="&lt;font style=&quot;font-size: 10px;&quot;&gt;Данные о персонале&lt;/font&gt;" style="text;html=1;strokeColor=none;fillColor=none;align=center;verticalAlign=middle;whiteSpace=wrap;rounded=0;rotation=0;" vertex="1" parent="1">
          <mxGeometry x="30" y="220" width="110" height="30" as="geometry" />
        </mxCell>
        <mxCell id="FY81dZ7kDu10n6bw8b0m-13" value="&lt;font style=&quot;font-size: 14px;&quot;&gt;Заказ расходных материалов&lt;/font&gt;" style="html=1;align=center;verticalAlign=top;rounded=1;absoluteArcSize=1;arcSize=10;dashed=0;whiteSpace=wrap;" vertex="1" parent="1">
          <mxGeometry x="560" y="590" width="180" height="60" as="geometry" />
        </mxCell>
        <mxCell id="FY81dZ7kDu10n6bw8b0m-14" value="&lt;font style=&quot;font-size: 14px;&quot;&gt;&lt;br&gt;&lt;br&gt;Распределение &lt;br&gt;задач&lt;/font&gt;" style="html=1;align=center;verticalAlign=top;rounded=1;absoluteArcSize=1;arcSize=10;dashed=0;whiteSpace=wrap;" vertex="1" parent="1">
          <mxGeometry x="370" y="370" width="180" height="110" as="geometry" />
        </mxCell>
        <mxCell id="FY81dZ7kDu10n6bw8b0m-15" value="&lt;font style=&quot;font-size: 14px;&quot;&gt;Обработка &lt;br&gt;бронирования&lt;/font&gt;" style="html=1;align=center;verticalAlign=top;rounded=1;absoluteArcSize=1;arcSize=10;dashed=0;whiteSpace=wrap;" vertex="1" parent="1">
          <mxGeometry x="590" y="200" width="180" height="60" as="geometry" />
        </mxCell>
        <mxCell id="FY81dZ7kDu10n6bw8b0m-16" value="" style="endArrow=classic;html=1;rounded=0;entryX=0;entryY=0.5;entryDx=0;entryDy=0;exitX=1;exitY=0.5;exitDx=0;exitDy=0;" edge="1" parent="1" source="FY81dZ7kDu10n6bw8b0m-5" target="FY81dZ7kDu10n6bw8b0m-15">
          <mxGeometry width="50" height="50" relative="1" as="geometry">
            <mxPoint x="330" y="225" as="sourcePoint" />
            <mxPoint x="460" y="225" as="targetPoint" />
          </mxGeometry>
        </mxCell>
        <mxCell id="FY81dZ7kDu10n6bw8b0m-17" value="&lt;font style=&quot;font-size: 10px;&quot;&gt;Идентификатор клиента&lt;/font&gt;" style="text;html=1;strokeColor=none;fillColor=none;align=center;verticalAlign=middle;whiteSpace=wrap;rounded=0;rotation=0;" vertex="1" parent="1">
          <mxGeometry x="390" y="200" width="140" height="30" as="geometry" />
        </mxCell>
        <mxCell id="FY81dZ7kDu10n6bw8b0m-18" value="" style="endArrow=classic;html=1;rounded=0;entryX=0.5;entryY=0;entryDx=0;entryDy=0;" edge="1" parent="1" target="FY81dZ7kDu10n6bw8b0m-15">
          <mxGeometry width="50" height="50" relative="1" as="geometry">
            <mxPoint x="240" y="150" as="sourcePoint" />
            <mxPoint x="590" y="-10" as="targetPoint" />
            <Array as="points">
              <mxPoint x="680" y="150" />
            </Array>
          </mxGeometry>
        </mxCell>
        <mxCell id="FY81dZ7kDu10n6bw8b0m-19" value="" style="endArrow=classic;html=1;rounded=0;exitX=0.889;exitY=1.003;exitDx=0;exitDy=0;exitPerimeter=0;entryX=0;entryY=0.5;entryDx=0;entryDy=0;" edge="1" parent="1" source="FY81dZ7kDu10n6bw8b0m-5" target="FY81dZ7kDu10n6bw8b0m-14">
          <mxGeometry width="50" height="50" relative="1" as="geometry">
            <mxPoint x="450" y="350" as="sourcePoint" />
            <mxPoint x="500" y="300" as="targetPoint" />
            <Array as="points">
              <mxPoint x="310" y="425" />
            </Array>
          </mxGeometry>
        </mxCell>
        <mxCell id="FY81dZ7kDu10n6bw8b0m-20" value="" style="endArrow=classic;html=1;rounded=0;exitX=0.742;exitY=0.996;exitDx=0;exitDy=0;exitPerimeter=0;entryX=0.002;entryY=0.165;entryDx=0;entryDy=0;entryPerimeter=0;" edge="1" parent="1" source="FY81dZ7kDu10n6bw8b0m-5" target="FY81dZ7kDu10n6bw8b0m-13">
          <mxGeometry width="50" height="50" relative="1" as="geometry">
            <mxPoint x="215" y="450" as="sourcePoint" />
            <mxPoint x="265" y="400" as="targetPoint" />
            <Array as="points">
              <mxPoint x="284" y="600" />
            </Array>
          </mxGeometry>
        </mxCell>
        <mxCell id="FY81dZ7kDu10n6bw8b0m-21" value="" style="endArrow=classic;html=1;rounded=0;exitX=1;exitY=0.75;exitDx=0;exitDy=0;entryX=0.001;entryY=0.06;entryDx=0;entryDy=0;entryPerimeter=0;" edge="1" parent="1" source="FY81dZ7kDu10n6bw8b0m-5" target="FY81dZ7kDu10n6bw8b0m-14">
          <mxGeometry width="50" height="50" relative="1" as="geometry">
            <mxPoint x="300" y="330" as="sourcePoint" />
            <mxPoint x="370" y="370" as="targetPoint" />
            <Array as="points">
              <mxPoint x="370" y="245" />
            </Array>
          </mxGeometry>
        </mxCell>
        <mxCell id="FY81dZ7kDu10n6bw8b0m-22" value="&lt;span style=&quot;font-size: 14px;&quot;&gt;Анализ данных о бронированиях и расходных материалах&lt;/span&gt;" style="html=1;align=center;verticalAlign=top;rounded=1;absoluteArcSize=1;arcSize=10;dashed=0;whiteSpace=wrap;" vertex="1" parent="1">
          <mxGeometry x="930" y="200" width="180" height="80" as="geometry" />
        </mxCell>
        <mxCell id="FY81dZ7kDu10n6bw8b0m-23" value="&lt;font style=&quot;font-size: 10px;&quot;&gt;Идентификатор администратора&lt;/font&gt;" style="text;html=1;strokeColor=none;fillColor=none;align=center;verticalAlign=middle;whiteSpace=wrap;rounded=0;rotation=-90;" vertex="1" parent="1">
          <mxGeometry x="250" y="400" width="60" height="30" as="geometry" />
        </mxCell>
        <mxCell id="FY81dZ7kDu10n6bw8b0m-24" value="&lt;font style=&quot;font-size: 10px;&quot;&gt;Идентификатор&lt;br&gt;горничной&lt;br&gt;&lt;/font&gt;" style="text;html=1;strokeColor=none;fillColor=none;align=center;verticalAlign=middle;whiteSpace=wrap;rounded=0;rotation=-90;" vertex="1" parent="1">
          <mxGeometry x="280" y="290" width="60" height="30" as="geometry" />
        </mxCell>
        <mxCell id="FY81dZ7kDu10n6bw8b0m-25" value="&lt;font style=&quot;font-size: 10px;&quot;&gt;Идентификатор&lt;br&gt;повара&lt;br&gt;&lt;/font&gt;" style="text;html=1;strokeColor=none;fillColor=none;align=center;verticalAlign=middle;whiteSpace=wrap;rounded=0;rotation=-90;" vertex="1" parent="1">
          <mxGeometry x="340" y="280" width="60" height="30" as="geometry" />
        </mxCell>
        <mxCell id="FY81dZ7kDu10n6bw8b0m-28" value="" style="endArrow=classic;html=1;rounded=0;entryX=-0.001;entryY=0.816;entryDx=0;entryDy=0;entryPerimeter=0;jumpStyle=none;" edge="1" parent="1" target="FY81dZ7kDu10n6bw8b0m-14">
          <mxGeometry width="50" height="50" relative="1" as="geometry">
            <mxPoint x="283" y="460" as="sourcePoint" />
            <mxPoint x="410" y="380" as="targetPoint" />
          </mxGeometry>
        </mxCell>
        <mxCell id="FY81dZ7kDu10n6bw8b0m-30" value="" style="endArrow=classic;html=1;rounded=0;entryX=-0.004;entryY=0.832;entryDx=0;entryDy=0;entryPerimeter=0;" edge="1" parent="1" target="FY81dZ7kDu10n6bw8b0m-13">
          <mxGeometry width="50" height="50" relative="1" as="geometry">
            <mxPoint x="450" y="640" as="sourcePoint" />
            <mxPoint x="190" y="650" as="targetPoint" />
          </mxGeometry>
        </mxCell>
        <mxCell id="FY81dZ7kDu10n6bw8b0m-31" value="&lt;font style=&quot;font-size: 10px;&quot;&gt;Данные о расходных&lt;br&gt;материалах&lt;/font&gt;" style="text;strokeColor=none;fillColor=none;align=left;verticalAlign=middle;spacingLeft=4;spacingRight=4;overflow=hidden;points=[[0,0.5],[1,0.5]];portConstraint=eastwest;rotatable=0;whiteSpace=wrap;html=1;" vertex="1" parent="1">
          <mxGeometry x="450" y="620" width="140" height="30" as="geometry" />
        </mxCell>
        <mxCell id="FY81dZ7kDu10n6bw8b0m-32" value="" style="endArrow=classic;html=1;rounded=0;entryX=0.111;entryY=1;entryDx=0;entryDy=0;entryPerimeter=0;" edge="1" parent="1" target="FY81dZ7kDu10n6bw8b0m-5">
          <mxGeometry width="50" height="50" relative="1" as="geometry">
            <mxPoint x="170" y="790" as="sourcePoint" />
            <mxPoint x="170" y="520" as="targetPoint" />
          </mxGeometry>
        </mxCell>
        <mxCell id="FY81dZ7kDu10n6bw8b0m-33" value="" style="endArrow=classic;html=1;rounded=0;entryX=0.111;entryY=1;entryDx=0;entryDy=0;entryPerimeter=0;" edge="1" parent="1">
          <mxGeometry width="50" height="50" relative="1" as="geometry">
            <mxPoint x="208.88999999999987" y="790" as="sourcePoint" />
            <mxPoint x="208.88999999999987" y="260" as="targetPoint" />
          </mxGeometry>
        </mxCell>
        <mxCell id="FY81dZ7kDu10n6bw8b0m-34" value="&lt;font style=&quot;font-size: 10px;&quot;&gt;Системный администратор&lt;br&gt;&lt;/font&gt;" style="text;html=1;strokeColor=none;fillColor=none;align=center;verticalAlign=middle;whiteSpace=wrap;rounded=0;rotation=-90;" vertex="1" parent="1">
          <mxGeometry x="180" y="470" width="60" height="30" as="geometry" />
        </mxCell>
        <mxCell id="FY81dZ7kDu10n6bw8b0m-35" value="&lt;font style=&quot;font-size: 10px;&quot;&gt;Система&lt;br&gt;&lt;/font&gt;" style="text;html=1;strokeColor=none;fillColor=none;align=center;verticalAlign=middle;whiteSpace=wrap;rounded=0;rotation=-90;" vertex="1" parent="1">
          <mxGeometry x="130" y="470" width="60" height="30" as="geometry" />
        </mxCell>
        <mxCell id="FY81dZ7kDu10n6bw8b0m-37" value="" style="endArrow=classic;html=1;rounded=0;entryX=0.014;entryY=0.995;entryDx=0;entryDy=0;entryPerimeter=0;" edge="1" parent="1" target="FY81dZ7kDu10n6bw8b0m-15">
          <mxGeometry width="50" height="50" relative="1" as="geometry">
            <mxPoint x="430" y="260" as="sourcePoint" />
            <mxPoint x="510" y="260" as="targetPoint" />
          </mxGeometry>
        </mxCell>
        <mxCell id="FY81dZ7kDu10n6bw8b0m-38" value="&lt;font style=&quot;font-size: 10px;&quot;&gt;Данные о гостинице&lt;/font&gt;" style="text;html=1;strokeColor=none;fillColor=none;align=center;verticalAlign=middle;whiteSpace=wrap;rounded=0;rotation=0;" vertex="1" parent="1">
          <mxGeometry x="450" y="230" width="140" height="30" as="geometry" />
        </mxCell>
        <mxCell id="FY81dZ7kDu10n6bw8b0m-39" value="&lt;font style=&quot;font-size: 14px;&quot;&gt;Администрирование&lt;br&gt;системы&lt;/font&gt;" style="html=1;align=center;verticalAlign=top;rounded=1;absoluteArcSize=1;arcSize=10;dashed=0;whiteSpace=wrap;" vertex="1" parent="1">
          <mxGeometry x="770" y="370" width="180" height="60" as="geometry" />
        </mxCell>
        <mxCell id="FY81dZ7kDu10n6bw8b0m-40" value="" style="endArrow=classic;html=1;rounded=0;exitX=1;exitY=0.5;exitDx=0;exitDy=0;" edge="1" parent="1">
          <mxGeometry width="50" height="50" relative="1" as="geometry">
            <mxPoint x="950" y="399.83" as="sourcePoint" />
            <mxPoint x="1050" y="400" as="targetPoint" />
          </mxGeometry>
        </mxCell>
        <mxCell id="FY81dZ7kDu10n6bw8b0m-41" value="&lt;font style=&quot;font-size: 10px;&quot;&gt;Журнал работы&lt;br&gt;системы&lt;br&gt;&lt;/font&gt;" style="text;html=1;strokeColor=none;fillColor=none;align=center;verticalAlign=middle;whiteSpace=wrap;rounded=0;rotation=0;" vertex="1" parent="1">
          <mxGeometry x="930" y="385" width="140" height="30" as="geometry" />
        </mxCell>
        <mxCell id="FY81dZ7kDu10n6bw8b0m-43" value="" style="endArrow=classic;html=1;rounded=0;exitX=1;exitY=0.5;exitDx=0;exitDy=0;" edge="1" parent="1">
          <mxGeometry width="50" height="50" relative="1" as="geometry">
            <mxPoint x="1110" y="239.63" as="sourcePoint" />
            <mxPoint x="1270" y="240" as="targetPoint" />
          </mxGeometry>
        </mxCell>
        <mxCell id="FY81dZ7kDu10n6bw8b0m-44" value="&lt;font style=&quot;font-size: 10px;&quot;&gt;Рекомендации по заказу&lt;br&gt;расходных материалов&lt;br&gt;&lt;/font&gt;" style="text;html=1;strokeColor=none;fillColor=none;align=center;verticalAlign=middle;whiteSpace=wrap;rounded=0;rotation=0;" vertex="1" parent="1">
          <mxGeometry x="1110" y="225" width="140" height="30" as="geometry" />
        </mxCell>
        <mxCell id="FY81dZ7kDu10n6bw8b0m-47" value="" style="endArrow=classic;html=1;rounded=0;exitX=1;exitY=0.5;exitDx=0;exitDy=0;" edge="1" parent="1" source="FY81dZ7kDu10n6bw8b0m-15">
          <mxGeometry width="50" height="50" relative="1" as="geometry">
            <mxPoint x="830" y="265" as="sourcePoint" />
            <mxPoint x="880" y="230" as="targetPoint" />
          </mxGeometry>
        </mxCell>
        <mxCell id="FY81dZ7kDu10n6bw8b0m-48" value="" style="endArrow=classic;html=1;rounded=0;exitX=0.996;exitY=0.107;exitDx=0;exitDy=0;exitPerimeter=0;" edge="1" parent="1" source="FY81dZ7kDu10n6bw8b0m-15">
          <mxGeometry width="50" height="50" relative="1" as="geometry">
            <mxPoint x="830" y="225" as="sourcePoint" />
            <mxPoint x="880" y="206" as="targetPoint" />
          </mxGeometry>
        </mxCell>
        <mxCell id="FY81dZ7kDu10n6bw8b0m-49" value="&lt;font style=&quot;font-size: 10px;&quot;&gt;Отзывы&lt;/font&gt;" style="text;html=1;strokeColor=none;fillColor=none;align=center;verticalAlign=middle;whiteSpace=wrap;rounded=0;rotation=0;" vertex="1" parent="1">
          <mxGeometry x="750" y="210" width="140" height="20" as="geometry" />
        </mxCell>
        <mxCell id="FY81dZ7kDu10n6bw8b0m-50" value="&lt;font style=&quot;font-size: 10px;&quot;&gt;Отчёты&lt;/font&gt;" style="text;html=1;strokeColor=none;fillColor=none;align=center;verticalAlign=middle;whiteSpace=wrap;rounded=0;rotation=0;" vertex="1" parent="1">
          <mxGeometry x="750" y="180" width="140" height="30" as="geometry" />
        </mxCell>
        <mxCell id="FY81dZ7kDu10n6bw8b0m-51" value="" style="endArrow=classic;html=1;rounded=0;entryX=0.25;entryY=1;entryDx=0;entryDy=0;exitX=0.75;exitY=1;exitDx=0;exitDy=0;" edge="1" parent="1" source="FY81dZ7kDu10n6bw8b0m-15" target="FY81dZ7kDu10n6bw8b0m-22">
          <mxGeometry width="50" height="50" relative="1" as="geometry">
            <mxPoint x="670" y="460" as="sourcePoint" />
            <mxPoint x="450" y="300" as="targetPoint" />
            <Array as="points">
              <mxPoint x="725" y="320" />
              <mxPoint x="860" y="320" />
              <mxPoint x="975" y="320" />
            </Array>
          </mxGeometry>
        </mxCell>
        <mxCell id="FY81dZ7kDu10n6bw8b0m-52" value="" style="endArrow=classic;html=1;rounded=0;entryX=0.555;entryY=-0.01;entryDx=0;entryDy=0;entryPerimeter=0;exitX=0.644;exitY=1.017;exitDx=0;exitDy=0;exitPerimeter=0;" edge="1" parent="1" source="FY81dZ7kDu10n6bw8b0m-53" target="FY81dZ7kDu10n6bw8b0m-39">
          <mxGeometry width="50" height="50" relative="1" as="geometry">
            <mxPoint x="810" y="320" as="sourcePoint" />
            <mxPoint x="650" y="340" as="targetPoint" />
          </mxGeometry>
        </mxCell>
        <mxCell id="FY81dZ7kDu10n6bw8b0m-53" value="&lt;font style=&quot;font-size: 10px;&quot;&gt;Данные о бронированиях&lt;/font&gt;" style="text;html=1;strokeColor=none;fillColor=none;align=center;verticalAlign=middle;whiteSpace=wrap;rounded=0;rotation=0;" vertex="1" parent="1">
          <mxGeometry x="780" y="290" width="140" height="30" as="geometry" />
        </mxCell>
        <mxCell id="FY81dZ7kDu10n6bw8b0m-54" value="" style="endArrow=classic;html=1;rounded=0;entryX=0.5;entryY=1;entryDx=0;entryDy=0;" edge="1" parent="1" target="FY81dZ7kDu10n6bw8b0m-39">
          <mxGeometry width="50" height="50" relative="1" as="geometry">
            <mxPoint x="170" y="740" as="sourcePoint" />
            <mxPoint x="580" y="510" as="targetPoint" />
            <Array as="points">
              <mxPoint x="860" y="740" />
            </Array>
          </mxGeometry>
        </mxCell>
        <mxCell id="FY81dZ7kDu10n6bw8b0m-55" value="" style="endArrow=classic;html=1;rounded=0;entryX=0.773;entryY=0.982;entryDx=0;entryDy=0;entryPerimeter=0;" edge="1" parent="1" target="FY81dZ7kDu10n6bw8b0m-39">
          <mxGeometry width="50" height="50" relative="1" as="geometry">
            <mxPoint x="210" y="770" as="sourcePoint" />
            <mxPoint x="590" y="530" as="targetPoint" />
            <Array as="points">
              <mxPoint x="909" y="770" />
            </Array>
          </mxGeometry>
        </mxCell>
        <mxCell id="FY81dZ7kDu10n6bw8b0m-56" value="" style="endArrow=classic;html=1;rounded=0;exitX=1;exitY=0.095;exitDx=0;exitDy=0;exitPerimeter=0;" edge="1" parent="1" source="FY81dZ7kDu10n6bw8b0m-14">
          <mxGeometry width="50" height="50" relative="1" as="geometry">
            <mxPoint x="590" y="390" as="sourcePoint" />
            <mxPoint x="660" y="380" as="targetPoint" />
          </mxGeometry>
        </mxCell>
        <mxCell id="FY81dZ7kDu10n6bw8b0m-57" value="&lt;font style=&quot;font-size: 10px;&quot;&gt;Отчёты&lt;/font&gt;" style="text;html=1;strokeColor=none;fillColor=none;align=center;verticalAlign=middle;whiteSpace=wrap;rounded=0;rotation=0;" vertex="1" parent="1">
          <mxGeometry x="530" y="355" width="140" height="30" as="geometry" />
        </mxCell>
        <mxCell id="FY81dZ7kDu10n6bw8b0m-60" value="" style="endArrow=classic;html=1;rounded=0;" edge="1" parent="1">
          <mxGeometry width="50" height="50" relative="1" as="geometry">
            <mxPoint x="550" y="440" as="sourcePoint" />
            <mxPoint x="690" y="440" as="targetPoint" />
          </mxGeometry>
        </mxCell>
        <mxCell id="FY81dZ7kDu10n6bw8b0m-62" value="&lt;font style=&quot;font-size: 10px;&quot;&gt;Список задач поваров&lt;/font&gt;" style="text;html=1;strokeColor=none;fillColor=none;align=center;verticalAlign=middle;whiteSpace=wrap;rounded=0;rotation=0;" vertex="1" parent="1">
          <mxGeometry x="540" y="415" width="140" height="30" as="geometry" />
        </mxCell>
        <mxCell id="FY81dZ7kDu10n6bw8b0m-64" value="" style="endArrow=classic;html=1;rounded=0;exitX=0.995;exitY=0.838;exitDx=0;exitDy=0;entryX=0;entryY=0.5;entryDx=0;entryDy=0;exitPerimeter=0;" edge="1" parent="1" source="FY81dZ7kDu10n6bw8b0m-62" target="FY81dZ7kDu10n6bw8b0m-39">
          <mxGeometry width="50" height="50" relative="1" as="geometry">
            <mxPoint x="630" y="380" as="sourcePoint" />
            <mxPoint x="680" y="330" as="targetPoint" />
            <Array as="points">
              <mxPoint x="680" y="400" />
            </Array>
          </mxGeometry>
        </mxCell>
        <mxCell id="FY81dZ7kDu10n6bw8b0m-67" value="" style="endArrow=classic;html=1;rounded=0;exitX=0.996;exitY=0.907;exitDx=0;exitDy=0;exitPerimeter=0;" edge="1" parent="1" source="FY81dZ7kDu10n6bw8b0m-14">
          <mxGeometry width="50" height="50" relative="1" as="geometry">
            <mxPoint x="610" y="510" as="sourcePoint" />
            <mxPoint x="720" y="470" as="targetPoint" />
          </mxGeometry>
        </mxCell>
        <mxCell id="FY81dZ7kDu10n6bw8b0m-68" value="&lt;font style=&quot;font-size: 10px;&quot;&gt;Список задач горничных&lt;/font&gt;" style="text;html=1;strokeColor=none;fillColor=none;align=center;verticalAlign=middle;whiteSpace=wrap;rounded=0;rotation=0;" vertex="1" parent="1">
          <mxGeometry x="550" y="445" width="140" height="30" as="geometry" />
        </mxCell>
        <mxCell id="FY81dZ7kDu10n6bw8b0m-70" value="" style="endArrow=classic;html=1;rounded=0;entryX=0;entryY=0.75;entryDx=0;entryDy=0;" edge="1" parent="1" target="FY81dZ7kDu10n6bw8b0m-39">
          <mxGeometry width="50" height="50" relative="1" as="geometry">
            <mxPoint x="700" y="470" as="sourcePoint" />
            <mxPoint x="600" y="340" as="targetPoint" />
            <Array as="points">
              <mxPoint x="700" y="415" />
            </Array>
          </mxGeometry>
        </mxCell>
        <mxCell id="FY81dZ7kDu10n6bw8b0m-71" value="" style="endArrow=classic;html=1;rounded=0;entryX=0.75;entryY=1;entryDx=0;entryDy=0;" edge="1" parent="1" target="FY81dZ7kDu10n6bw8b0m-14">
          <mxGeometry width="50" height="50" relative="1" as="geometry">
            <mxPoint x="505" y="550" as="sourcePoint" />
            <mxPoint x="590" y="410" as="targetPoint" />
          </mxGeometry>
        </mxCell>
        <mxCell id="FY81dZ7kDu10n6bw8b0m-72" value="" style="endArrow=classic;html=1;rounded=0;entryX=0.75;entryY=1;entryDx=0;entryDy=0;" edge="1" parent="1">
          <mxGeometry width="50" height="50" relative="1" as="geometry">
            <mxPoint x="480" y="550" as="sourcePoint" />
            <mxPoint x="480" y="480" as="targetPoint" />
          </mxGeometry>
        </mxCell>
        <mxCell id="FY81dZ7kDu10n6bw8b0m-74" value="" style="endArrow=classic;html=1;rounded=0;entryX=0.556;entryY=1.005;entryDx=0;entryDy=0;entryPerimeter=0;" edge="1" parent="1" target="FY81dZ7kDu10n6bw8b0m-13">
          <mxGeometry width="50" height="50" relative="1" as="geometry">
            <mxPoint x="660" y="740" as="sourcePoint" />
            <mxPoint x="730" y="600" as="targetPoint" />
          </mxGeometry>
        </mxCell>
        <mxCell id="FY81dZ7kDu10n6bw8b0m-75" value="&lt;font style=&quot;font-size: 10px;&quot;&gt;Горнчиная&lt;br&gt;&lt;/font&gt;" style="text;html=1;strokeColor=none;fillColor=none;align=center;verticalAlign=middle;whiteSpace=wrap;rounded=0;rotation=-90;" vertex="1" parent="1">
          <mxGeometry x="470" y="500" width="60" height="30" as="geometry" />
        </mxCell>
        <mxCell id="FY81dZ7kDu10n6bw8b0m-76" value="&lt;font style=&quot;font-size: 10px;&quot;&gt;Повар&lt;br&gt;&lt;/font&gt;" style="text;html=1;strokeColor=none;fillColor=none;align=center;verticalAlign=middle;whiteSpace=wrap;rounded=0;rotation=-90;" vertex="1" parent="1">
          <mxGeometry x="440" y="510" width="60" height="30" as="geometry" />
        </mxCell>
        <mxCell id="FY81dZ7kDu10n6bw8b0m-77" value="" style="endArrow=classic;html=1;rounded=0;entryX=0.107;entryY=1.004;entryDx=0;entryDy=0;entryPerimeter=0;" edge="1" parent="1" target="FY81dZ7kDu10n6bw8b0m-14">
          <mxGeometry width="50" height="50" relative="1" as="geometry">
            <mxPoint x="390" y="740" as="sourcePoint" />
            <mxPoint x="400" y="330" as="targetPoint" />
          </mxGeometry>
        </mxCell>
        <mxCell id="FY81dZ7kDu10n6bw8b0m-78" value="" style="endArrow=classic;html=1;rounded=0;entryX=0.25;entryY=1;entryDx=0;entryDy=0;" edge="1" parent="1" target="FY81dZ7kDu10n6bw8b0m-14">
          <mxGeometry width="50" height="50" relative="1" as="geometry">
            <mxPoint x="415" y="710" as="sourcePoint" />
            <mxPoint x="420" y="470" as="targetPoint" />
          </mxGeometry>
        </mxCell>
        <mxCell id="FY81dZ7kDu10n6bw8b0m-79" value="" style="endArrow=classic;html=1;rounded=0;entryX=0.25;entryY=1;entryDx=0;entryDy=0;" edge="1" parent="1" target="FY81dZ7kDu10n6bw8b0m-13">
          <mxGeometry width="50" height="50" relative="1" as="geometry">
            <mxPoint x="415" y="700" as="sourcePoint" />
            <mxPoint x="420" y="470" as="targetPoint" />
            <Array as="points">
              <mxPoint x="605" y="700" />
            </Array>
          </mxGeometry>
        </mxCell>
        <mxCell id="FY81dZ7kDu10n6bw8b0m-80" value="&lt;span style=&quot;font-size: 10px;&quot;&gt;Администратор&lt;/span&gt;" style="text;strokeColor=none;fillColor=none;align=left;verticalAlign=middle;spacingLeft=4;spacingRight=4;overflow=hidden;points=[[0,0.5],[1,0.5]];portConstraint=eastwest;rotatable=0;whiteSpace=wrap;html=1;" vertex="1" parent="1">
          <mxGeometry x="450" y="680" width="140" height="30" as="geometry" />
        </mxCell>
        <mxCell id="FY81dZ7kDu10n6bw8b0m-81" value="" style="endArrow=classic;html=1;rounded=0;entryX=0.25;entryY=1;entryDx=0;entryDy=0;" edge="1" parent="1" target="FY81dZ7kDu10n6bw8b0m-15">
          <mxGeometry width="50" height="50" relative="1" as="geometry">
            <mxPoint x="170" y="350" as="sourcePoint" />
            <mxPoint x="340" y="210" as="targetPoint" />
            <Array as="points">
              <mxPoint x="635" y="350" />
            </Array>
          </mxGeometry>
        </mxCell>
        <mxCell id="FY81dZ7kDu10n6bw8b0m-82" value="" style="endArrow=classic;html=1;rounded=0;entryX=0.5;entryY=1;entryDx=0;entryDy=0;" edge="1" parent="1" target="FY81dZ7kDu10n6bw8b0m-15">
          <mxGeometry width="50" height="50" relative="1" as="geometry">
            <mxPoint x="680" y="340" as="sourcePoint" />
            <mxPoint x="390" y="320" as="targetPoint" />
          </mxGeometry>
        </mxCell>
        <mxCell id="FY81dZ7kDu10n6bw8b0m-83" value="&lt;font style=&quot;font-size: 10px;&quot;&gt;Клиент&lt;br&gt;&lt;/font&gt;" style="text;html=1;strokeColor=none;fillColor=none;align=center;verticalAlign=middle;whiteSpace=wrap;rounded=0;rotation=-90;" vertex="1" parent="1">
          <mxGeometry x="640" y="290" width="60" height="30" as="geometry" />
        </mxCell>
        <mxCell id="FY81dZ7kDu10n6bw8b0m-84" value="" style="endArrow=classic;html=1;rounded=0;exitX=1;exitY=0.25;exitDx=0;exitDy=0;" edge="1" parent="1" source="FY81dZ7kDu10n6bw8b0m-13">
          <mxGeometry width="50" height="50" relative="1" as="geometry">
            <mxPoint x="780" y="610" as="sourcePoint" />
            <mxPoint x="830" y="605" as="targetPoint" />
          </mxGeometry>
        </mxCell>
        <mxCell id="FY81dZ7kDu10n6bw8b0m-85" value="&lt;font style=&quot;font-size: 10px;&quot;&gt;Отчёты&lt;/font&gt;" style="text;html=1;strokeColor=none;fillColor=none;align=center;verticalAlign=middle;whiteSpace=wrap;rounded=0;rotation=0;" vertex="1" parent="1">
          <mxGeometry x="710" y="580" width="140" height="30" as="geometry" />
        </mxCell>
        <mxCell id="FY81dZ7kDu10n6bw8b0m-86" value="" style="endArrow=classic;html=1;rounded=0;exitX=0.5;exitY=0;exitDx=0;exitDy=0;entryX=0.25;entryY=1;entryDx=0;entryDy=0;" edge="1" parent="1" source="FY81dZ7kDu10n6bw8b0m-13" target="FY81dZ7kDu10n6bw8b0m-39">
          <mxGeometry width="50" height="50" relative="1" as="geometry">
            <mxPoint x="320" y="440" as="sourcePoint" />
            <mxPoint x="370" y="390" as="targetPoint" />
            <Array as="points">
              <mxPoint x="650" y="530" />
              <mxPoint x="815" y="530" />
            </Array>
          </mxGeometry>
        </mxCell>
        <mxCell id="FY81dZ7kDu10n6bw8b0m-87" value="&lt;font style=&quot;font-size: 10px;&quot;&gt;Данные о заказе&lt;br&gt;расходных материалов&lt;br&gt;&lt;/font&gt;" style="text;html=1;strokeColor=none;fillColor=none;align=center;verticalAlign=middle;whiteSpace=wrap;rounded=0;rotation=0;" vertex="1" parent="1">
          <mxGeometry x="660" y="510" width="140" height="30" as="geometry" />
        </mxCell>
        <mxCell id="FY81dZ7kDu10n6bw8b0m-88" value="" style="endArrow=classic;html=1;rounded=0;entryX=0.75;entryY=1;entryDx=0;entryDy=0;" edge="1" parent="1" target="FY81dZ7kDu10n6bw8b0m-22">
          <mxGeometry width="50" height="50" relative="1" as="geometry">
            <mxPoint x="860" y="740" as="sourcePoint" />
            <mxPoint x="1110" y="280" as="targetPoint" />
            <Array as="points">
              <mxPoint x="1065" y="740" />
            </Array>
          </mxGeometry>
        </mxCell>
      </root>
    </mxGraphModel>
  </diagram>
</mxfile>
